<svg width="23" height="20" viewBox="0 0 23 20" fill="none" xmlns="http://www.w3.org/2000/svg">
<path d="M5.53398 20C3.83495 20 2.47573 19.3827 1.45631 18.1481C0.485437 16.8642 0 15.2099 0 13.1852C0 10.4197 0.728155 7.92592 2.18447 5.7037C3.68932 3.4321 5.97087 1.53086 9.02913 0L9.8301 1.18518C8.37379 2.07407 7.03883 3.33333 5.82524 4.96296C4.66019 6.54321 4.07767 8.14815 4.07767 9.77777C4.07767 10.2222 4.19903 10.5926 4.44175 10.8889C4.68447 11.1358 5.04854 11.2593 5.53398 11.2593C6.74757 11.2593 7.76699 11.7037 8.59223 12.5926C9.46602 13.4321 9.90291 14.4691 9.90291 15.7037C9.90291 16.9383 9.46602 17.9753 8.59223 18.8148C7.76699 19.6049 6.74757 20 5.53398 20ZM18.1311 20C16.432 20 15.0728 19.3827 14.0534 18.1481C13.0825 16.8642 12.5971 15.2099 12.5971 13.1852C12.5971 10.4197 13.3252 7.92592 14.7816 5.7037C16.2864 3.4321 18.568 1.53086 21.6262 0L22.4272 1.18518C20.9709 2.07407 19.6359 3.33333 18.4223 4.96296C17.2573 6.54321 16.6748 8.14815 16.6748 9.77777C16.6748 10.2222 16.7961 10.5926 17.0388 10.8889C17.2816 11.1358 17.6456 11.2593 18.1311 11.2593C19.3447 11.2593 20.3641 11.7037 21.1893 12.5926C22.0631 13.4321 22.5 14.4691 22.5 15.7037C22.5 16.9383 22.0631 17.9753 21.1893 18.8148C20.3641 19.6049 19.3447 20 18.1311 20Z" fill="white"/>
</svg>
