<svg width="130" height="108" viewBox="0 0 130 108" fill="none" xmlns="http://www.w3.org/2000/svg">
<g filter="url(#filter0_d)">
<path fill-rule="evenodd" clip-rule="evenodd" d="M58.2224 65.611C58.2224 61.7221 61.2779 58.6667 65.1668 58.6667C69.0557 58.6667 72.1112 61.7221 72.1115 65.611C72.1115 67.8333 71.0003 69.7778 69.3337 71.1666V76.7221C69.3337 78.9444 67.3891 80.8889 65.1669 80.8889C62.9447 80.8889 61.0002 78.9444 61.0002 76.7221V71.1666C59.3335 69.7778 58.2224 67.8333 58.2224 65.611ZM66.5556 76.7223V69.5001C68.2223 68.9445 69.3334 67.5555 69.3337 65.6112C69.3337 63.389 67.3891 61.4444 65.1669 61.4444C62.9447 61.4444 61.0002 63.389 61.0002 65.6112C61.0002 67.2777 62.1113 68.9445 63.778 69.5001V76.7223C63.778 77.5555 64.3335 78.1111 65.1668 78.1111C66 78.1111 66.5556 77.5555 66.5556 76.7223Z" fill="#D96832"/>
<path fill-rule="evenodd" clip-rule="evenodd" d="M86 37.8333V47.5556C90.7223 47.5556 94.3333 51.4444 94.3333 55.8889V83.6667C94.3333 88.389 90.7223 92 86 92H44.3333C39.611 92 36 88.389 36 83.6667V55.889C36 51.1667 39.611 47.5557 44.3333 47.5557V37.8334C44.3333 26.4444 53.7778 17 65.1667 17C76.5556 17 86 26.4444 86 37.8333ZM65.1666 19.7779C55.1666 19.7779 47.1111 27.8334 47.1111 37.8334V47.5557H49.8889V37.8334C49.8889 29.4999 56.833 22.5556 65.1664 22.5556C73.4999 22.5556 80.4443 29.5001 80.4443 37.8334V47.5557H83.2221V37.8334C83.2221 27.8334 75.1666 19.7779 65.1666 19.7779ZM77.6667 47.5557V37.8334C77.6667 30.8889 72.111 25.3335 65.1666 25.3335C58.2222 25.3335 52.6667 30.889 52.6667 37.8334V47.5557H77.6667ZM86 89.2222C89.0555 89.2222 91.5555 86.7222 91.5555 83.6667V55.8889C91.5555 52.8333 89.0555 50.3333 86 50.3333H44.3333C41.2777 50.3333 38.7778 52.8333 38.7778 55.8889V83.6667C38.7778 86.7222 41.2777 89.2222 44.3333 89.2222H86Z" fill="#D96832"/>
<path d="M66.4765 69.2629L66.3056 69.3199V69.5001V76.7223C66.3056 77.0821 66.1867 77.3625 65.9969 77.5524C65.807 77.7422 65.5266 77.8611 65.1668 77.8611C64.807 77.8611 64.5265 77.7422 64.3367 77.5524C64.1468 77.3625 64.028 77.0821 64.028 76.7223V69.5001V69.3199L63.857 69.2629C62.2978 68.7431 61.2502 67.1758 61.2502 65.6112C61.2502 63.527 63.0828 61.6944 65.1669 61.6944C67.2511 61.6944 69.0837 63.527 69.0837 65.6111C69.0834 67.4436 68.0452 68.74 66.4765 69.2629ZM65.1668 58.4167C61.1398 58.4167 57.9724 61.5841 57.9724 65.611C57.9724 67.8809 59.088 69.8613 60.7502 71.2827V76.7221C60.7502 79.0824 62.8066 81.1389 65.1669 81.1389C67.5272 81.1389 69.5837 79.0824 69.5837 76.7221V71.2827C71.2459 69.8613 72.3615 67.8809 72.3615 65.611C72.3611 61.5841 69.1937 58.4167 65.1668 58.4167ZM86.25 47.3091V37.8333C86.25 26.3064 76.6936 16.75 65.1667 16.75C53.6397 16.75 44.0833 26.3064 44.0833 37.8334V47.309C39.3459 47.4342 35.75 51.1123 35.75 55.889V83.6667C35.75 88.527 39.473 92.25 44.3333 92.25H86C90.8604 92.25 94.5833 88.527 94.5833 83.6667V55.8889C94.5833 51.3905 90.9925 47.4435 86.25 47.3091ZM47.3611 37.8334C47.3611 27.9715 55.3047 20.0279 65.1666 20.0279C75.0285 20.0279 82.9721 27.9715 82.9721 37.8334V47.3057H80.6943V37.8334C80.6943 29.362 73.638 22.3056 65.1664 22.3056C56.6949 22.3056 49.6389 29.3619 49.6389 37.8334V47.3057H47.3611V37.8334ZM77.4167 37.8334V47.3057H52.9167V37.8334C52.9167 31.0271 58.3603 25.5835 65.1666 25.5835C71.9729 25.5835 77.4167 31.027 77.4167 37.8334ZM91.3055 83.6667C91.3055 86.5841 88.9174 88.9722 86 88.9722H44.3333C41.4158 88.9722 39.0278 86.5841 39.0278 83.6667V55.8889C39.0278 52.9713 41.4158 50.5833 44.3333 50.5833H86C88.9174 50.5833 91.3055 52.9713 91.3055 55.8889V83.6667Z" stroke="#D96832" stroke-width="0.5"/>
</g>
<defs>
<filter id="filter0_d" x="0.5" y="-8.5" width="129.333" height="146" filterUnits="userSpaceOnUse" color-interpolation-filters="sRGB">
<feFlood flood-opacity="0" result="BackgroundImageFix"/>
<feColorMatrix in="SourceAlpha" type="matrix" values="0 0 0 0 0 0 0 0 0 0 0 0 0 0 0 0 0 0 127 0"/>
<feOffset dy="10"/>
<feGaussianBlur stdDeviation="17.5"/>
<feColorMatrix type="matrix" values="0 0 0 0 1 0 0 0 0 0.239216 0 0 0 0 0 0 0 0 0.55 0"/>
<feBlend mode="normal" in2="BackgroundImageFix" result="effect1_dropShadow"/>
<feBlend mode="normal" in="SourceGraphic" in2="effect1_dropShadow" result="shape"/>
</filter>
</defs>
</svg>
