<svg width="146" height="108" viewBox="0 0 146 108" fill="none" xmlns="http://www.w3.org/2000/svg">
<g filter="url(#filter0_d)">
<path d="M73 16.1377C52.2908 16.1377 35.5 32.9285 35.5 53.6377C35.5 74.3466 52.2908 91.1377 73 91.1377C93.7092 91.1377 110.5 74.3464 110.5 53.6377C110.5 32.9285 93.7092 16.1377 73 16.1377ZM75.3439 86.3311V81.7625H70.6562V86.3311C54.4378 85.1783 41.4603 72.2004 40.3067 55.9819H44.8749V51.2942H40.3067C41.4603 35.0753 54.4378 22.0978 70.6562 20.9443V25.5125H75.3439V20.9444C91.5625 22.0978 104.54 35.0755 105.693 51.2944H101.125V55.9821H105.693C104.54 72.2004 91.5623 85.1783 75.3439 86.3311ZM90.2531 43.6766C90.5734 44.2354 90.3814 44.9543 89.8231 45.2792L77.4432 52.4246C77.55 52.8229 77.6877 53.2077 77.6877 53.6377C77.6877 56.2286 75.5885 58.3249 73.0002 58.3249C70.4111 58.3249 68.3125 56.2286 68.3125 53.6377L55.5914 46.2951C54.4696 45.6454 54.0854 44.2124 54.7329 43.091C55.3781 41.9649 56.8133 41.5806 57.9348 42.2308L70.7295 49.619C71.4113 49.2346 72.1576 48.9506 73.0002 48.9506C74.3095 48.9506 75.4875 49.4907 76.3395 50.3606L88.6508 43.2466C89.2005 42.9214 89.9189 43.1137 90.2531 43.6766Z" fill="#D96832"/>
</g>
<defs>
<filter id="filter0_d" x="0.5" y="-8.8623" width="145" height="145" filterUnits="userSpaceOnUse" color-interpolation-filters="sRGB">
<feFlood flood-opacity="0" result="BackgroundImageFix"/>
<feColorMatrix in="SourceAlpha" type="matrix" values="0 0 0 0 0 0 0 0 0 0 0 0 0 0 0 0 0 0 127 0"/>
<feOffset dy="10"/>
<feGaussianBlur stdDeviation="17.5"/>
<feColorMatrix type="matrix" values="0 0 0 0 1 0 0 0 0 0.239216 0 0 0 0 0 0 0 0 0.55 0"/>
<feBlend mode="normal" in2="BackgroundImageFix" result="effect1_dropShadow"/>
<feBlend mode="normal" in="SourceGraphic" in2="effect1_dropShadow" result="shape"/>
</filter>
</defs>
</svg>
