<svg width="133" height="108" viewBox="0 0 133 108" fill="none" xmlns="http://www.w3.org/2000/svg">
<path d="M113.919 76.8993C109.495 82.8077 103.111 87.3643 96.0421 89.5308C94.7575 89.9246 93.4594 89.1906 93.1048 87.9822C92.7468 86.7557 93.4442 85.3949 94.6572 85.0457C107.292 81.4022 116.394 68.717 116.394 55.6738C116.394 42.5322 107.292 29.8917 94.6572 26.2123C93.4451 25.8632 92.7647 24.5829 93.1048 23.276C93.3528 22.3181 94.2794 21.6377 95.3285 21.6377C95.4547 21.6377 95.6992 21.7003 96.042 21.8078C103.086 23.9654 109.455 28.4772 113.919 34.4393C118.603 40.6879 121.053 47.7422 121.053 55.6738C121.053 63.5168 118.644 70.597 113.919 76.8993Z" fill="#454545"/>
<path d="M104.435 41.7801C107.414 45.8534 108.925 50.5086 108.925 55.6739C108.925 60.7855 107.414 65.4048 104.435 69.478C101.456 73.5423 97.4502 76.2995 92.5176 77.9111C91.2804 78.3138 89.9492 77.7051 89.5803 76.398C89.2366 75.1806 89.9241 73.9092 91.1327 73.5422C95.086 72.3605 98.2559 70.0599 100.659 66.7476C103.041 63.471 104.267 59.7828 104.267 55.6738C104.267 51.511 103.061 47.8138 100.659 44.5104C98.2765 41.2249 95.0771 39.0139 91.1327 37.7962C89.9152 37.4203 89.2151 36.0685 89.5803 34.8599C89.8874 33.8394 90.797 33.2216 91.8041 33.2216C92.0975 33.2216 92.3491 33.2574 92.5175 33.347C97.4689 34.8968 101.455 37.7069 104.435 41.7801Z" fill="#454545"/>
<g filter="url(#filter0_d)">
<path fill-rule="evenodd" clip-rule="evenodd" d="M79.8027 85.3411C80.5699 85.9677 81.39 85.9948 82.2789 85.5918C83.1519 85.198 83.5797 84.4997 83.5796 83.5338V27.8056C83.5796 26.8387 83.1544 26.1404 82.2789 25.6661C82.0633 25.5496 81.6917 25.4959 81.2297 25.4959C80.6837 25.4959 80.22 25.666 79.8029 25.9973L60.5424 41.6546H38.0079C36.7071 41.6546 35.7 42.6574 35.7 43.9643L35.7 67.2488C35.7 68.5569 36.7071 69.6043 38.0079 69.6043H60.5422L79.8027 85.3411ZM62.8501 45.7637L78.9219 32.6318H78.922V78.627L62.8502 65.4495C62.4339 65.1093 61.9263 64.9392 61.3811 64.9392H40.3577V46.3098H61.381C61.9271 46.3098 62.3882 46.1397 62.8501 45.7637ZM97.2166 55.6745C97.2166 53.1144 96.4717 50.8404 94.9929 48.7904C93.5345 46.7672 91.6322 45.3976 89.2438 44.592C88.9035 44.4755 88.6556 44.4218 88.4461 44.4218C87.4811 44.4218 86.5232 45.0843 86.2225 46.0601C85.8509 47.2686 86.4856 48.5398 87.7747 48.9606C90.6411 49.8827 92.6008 52.6041 92.6008 55.6747C92.6008 58.6916 90.6413 61.3773 87.7747 62.2993C86.4856 62.7202 85.8868 63.9825 86.2225 65.1999C86.6844 66.4083 87.9591 67.1423 89.2438 66.7485C91.6546 66.0053 93.5239 64.5283 94.9929 62.4693C96.461 60.4102 97.2166 58.1454 97.2166 55.6745Z" fill="#D96832"/>
</g>
<defs>
<filter id="filter0_d" x="0.700012" y="0.49585" width="131.517" height="130.364" filterUnits="userSpaceOnUse" color-interpolation-filters="sRGB">
<feFlood flood-opacity="0" result="BackgroundImageFix"/>
<feColorMatrix in="SourceAlpha" type="matrix" values="0 0 0 0 0 0 0 0 0 0 0 0 0 0 0 0 0 0 127 0"/>
<feOffset dy="10"/>
<feGaussianBlur stdDeviation="17.5"/>
<feColorMatrix type="matrix" values="0 0 0 0 1 0 0 0 0 0.239216 0 0 0 0 0 0 0 0 0.55 0"/>
<feBlend mode="normal" in2="BackgroundImageFix" result="effect1_dropShadow"/>
<feBlend mode="normal" in="SourceGraphic" in2="effect1_dropShadow" result="shape"/>
</filter>
</defs>
</svg>
