<svg width="145" height="108" viewBox="0 0 145 108" fill="none" xmlns="http://www.w3.org/2000/svg">
<g filter="url(#filter0_d)">
<path d="M110 53.1719C110 73.3494 93.5175 89.706 73.1817 89.706C66.7258 89.706 60.6608 88.056 55.3842 85.1602L35 91.6377L41.6458 72.036C38.2933 66.531 36.3625 60.0744 36.3625 53.1719C36.3625 32.9944 52.8467 16.6377 73.1817 16.6377C93.5192 16.6377 110 32.9944 110 53.1719ZM73.1817 22.456C56.1117 22.456 42.2267 36.2352 42.2267 53.1719C42.2267 59.8927 44.4175 66.1169 48.1233 71.1802L44.2558 82.5877L56.1517 78.8069C61.0392 82.016 66.8942 83.8877 73.1825 83.8877C90.25 83.8877 104.137 70.1102 104.137 53.1735C104.137 36.2369 90.2508 22.456 73.1817 22.456ZM91.7742 61.586C91.5467 61.2135 90.9458 60.9885 90.0442 60.541C89.1408 60.0935 84.7025 57.926 83.8775 57.6285C83.05 57.3302 82.4467 57.1802 81.8458 58.076C81.245 58.9727 79.515 60.9885 78.9875 61.586C78.4608 62.1852 77.935 62.2602 77.0317 61.8119C76.13 61.3644 73.2225 60.4177 69.775 57.3677C67.0925 54.9944 65.2808 52.0644 64.7542 51.1669C64.2283 50.271 64.6992 49.7869 65.15 49.341C65.5567 48.9394 66.0533 48.2952 66.5042 47.7727C66.9567 47.2494 67.1067 46.8769 67.4058 46.2785C67.7083 45.681 67.5575 45.1585 67.3308 44.7094C67.1058 44.2619 65.2992 39.8552 64.5475 38.0619C63.7958 36.2702 63.045 36.5685 62.5175 36.5685C61.9917 36.5685 61.3892 36.4935 60.7875 36.4935C60.1858 36.4935 59.2075 36.7177 58.38 37.6135C57.5533 38.5102 55.2225 40.6769 55.2225 45.0827C55.2225 49.4894 58.455 53.7469 58.9075 54.3435C59.3583 54.9402 65.1492 64.2769 74.3242 67.8627C83.5 71.4469 83.5 70.251 85.155 70.101C86.8083 69.9519 90.4933 67.9352 91.2483 65.8452C91.9983 63.7519 91.9983 61.9594 91.7742 61.586Z" fill="#D96832"/>
</g>
<defs>
<filter id="filter0_d" x="0" y="-8.3623" width="145" height="145" filterUnits="userSpaceOnUse" color-interpolation-filters="sRGB">
<feFlood flood-opacity="0" result="BackgroundImageFix"/>
<feColorMatrix in="SourceAlpha" type="matrix" values="0 0 0 0 0 0 0 0 0 0 0 0 0 0 0 0 0 0 127 0"/>
<feOffset dy="10"/>
<feGaussianBlur stdDeviation="17.5"/>
<feColorMatrix type="matrix" values="0 0 0 0 1 0 0 0 0 0.239216 0 0 0 0 0 0 0 0 0.55 0"/>
<feBlend mode="normal" in2="BackgroundImageFix" result="effect1_dropShadow"/>
<feBlend mode="normal" in="SourceGraphic" in2="effect1_dropShadow" result="shape"/>
</filter>
</defs>
</svg>
