<svg width="148" height="95" viewBox="0 0 148 95" fill="none" xmlns="http://www.w3.org/2000/svg">
<path d="M10.7083 89.442H9.28898L3.80645 82.0366V89.442H2.45012V79.9478H3.8694L9.34621 87.3475V79.9478H10.7083V89.442Z" fill="white"/>
<path d="M24.7809 89.442H23.27L22.1941 87.0327H17.3125L16.2538 89.442H14.7887L19.0866 79.9478H20.5002L24.7809 89.442ZM19.7619 81.5387L17.8333 85.8652H21.6848L19.7619 81.5387Z" fill="white"/>
<path d="M41.7206 88.2746H46.2761V89.442H40.2556V79.9478H41.7206V88.2746Z" fill="white"/>
<path d="M56.8692 89.442H50.4767V79.9478H56.8692V81.1095H51.9417V83.9652H56.5144V85.1327H51.9417V88.2746H56.8692V89.442Z" fill="white"/>
<path d="M69.7571 89.442H68.3378L62.861 82.0366V89.442H61.5047V79.9478H62.9183L68.4008 87.3474V79.9478H69.7571V89.442Z" fill="white"/>
<path d="M76.4872 79.9478H75.0222V89.442H76.4872V79.9478Z" fill="white"/>
<path d="M90.0104 89.442H88.5911L83.1086 82.0366V89.442H81.7523V79.9478H83.1716L88.6541 87.3474V79.9478H90.0104V89.442Z" fill="white"/>
<path d="M98.2285 80.9723C97.7402 80.9486 97.2564 81.0765 96.8436 81.3386C96.6853 81.4471 96.5552 81.5919 96.464 81.7608C96.3728 81.9297 96.3232 82.1179 96.3193 82.3098C96.3154 82.5017 96.3573 82.6917 96.4415 82.8642C96.5257 83.0367 96.6498 83.1866 96.8035 83.3015C97.4768 83.6986 98.2061 83.9919 98.9668 84.1714C99.7717 84.3595 100.522 84.7317 101.159 85.2588C101.377 85.4638 101.549 85.7125 101.664 85.9886C101.78 86.2647 101.836 86.562 101.828 86.8612C101.83 87.2395 101.742 87.6128 101.571 87.9502C101.399 88.2876 101.15 88.5794 100.844 88.8013C100.137 89.3335 99.2677 89.6063 98.3831 89.5739C97.6379 89.5806 96.8981 89.4466 96.2026 89.179C95.5309 88.9192 94.9165 88.5303 94.3942 88.0344L95.224 87.1359C95.6467 87.5552 96.146 87.8894 96.6948 88.1202C97.2309 88.3374 97.8047 88.4463 98.3831 88.4407C98.8965 88.4629 99.4024 88.3117 99.8195 88.0115C99.9966 87.8896 100.141 87.7263 100.241 87.5358C100.341 87.3453 100.392 87.1334 100.392 86.9184C100.392 86.7412 100.352 86.5663 100.274 86.4074C100.195 86.2485 100.081 86.11 99.9397 86.0027C99.3868 85.6516 98.7796 85.3944 98.1427 85.2416C97.211 85.0238 96.3355 84.6123 95.5731 84.0341C95.35 83.823 95.1744 83.5669 95.058 83.2827C94.9415 82.9985 94.8869 82.6928 94.8978 82.3859C94.8899 82.0213 94.9719 81.6603 95.1366 81.3349C95.3013 81.0095 95.5436 80.7297 95.8421 80.5202C96.5356 80.0224 97.3756 79.7706 98.2285 79.8048C98.831 79.8006 99.4288 79.9093 99.9912 80.1253C100.561 80.3492 101.086 80.6728 101.542 81.081L100.695 81.9795C100.328 81.6616 99.9154 81.4011 99.4704 81.2069C99.0817 81.0479 98.6657 80.9663 98.2457 80.9666" fill="white"/>
<path d="M108.238 85.1842H107.763V89.4363H106.298V79.9478H107.763V84.0225H108.226C108.713 84.0507 109.198 83.9583 109.64 83.7535C110.08 83.4517 110.452 83.062 110.733 82.6089L112.536 79.9592H114.075L112.272 82.6089C111.933 83.0973 111.651 83.4788 111.425 83.7535C111.229 84.0087 111.013 84.2479 110.779 84.4688L114.441 89.4592H112.725L109.52 85.0926C109.331 85.1329 109.14 85.1615 108.947 85.1785C108.741 85.1785 108.495 85.1785 108.209 85.1785" fill="white"/>
<path d="M122.774 89.5793C121.39 89.622 120.044 89.1207 119.026 88.1829C118.551 87.7347 118.174 87.1944 117.915 86.5951C117.657 85.9959 117.524 85.3502 117.524 84.6977C117.524 84.0452 117.657 83.3995 117.915 82.8002C118.174 82.201 118.551 81.6607 119.026 81.2125C120.066 80.3105 121.397 79.814 122.774 79.814C124.151 79.814 125.482 80.3105 126.523 81.2125C126.997 81.6607 127.374 82.201 127.633 82.8002C127.891 83.3995 128.024 84.0452 128.024 84.6977C128.024 85.3502 127.891 85.9959 127.633 86.5951C127.374 87.1944 126.997 87.7347 126.523 88.1829C125.504 89.1212 124.158 89.6226 122.774 89.5793ZM122.774 88.3718C123.267 88.3862 123.758 88.3008 124.217 88.1209C124.676 87.9409 125.095 87.67 125.447 87.3245C126.133 86.6211 126.517 85.6774 126.517 84.6948C126.517 83.7122 126.133 82.7685 125.447 82.0652C124.722 81.3877 123.766 81.0108 122.774 81.0108C121.782 81.0108 120.826 81.3877 120.101 82.0652C119.415 82.7685 119.031 83.7122 119.031 84.6948C119.031 85.6774 119.415 86.6211 120.101 87.3245C120.454 87.6697 120.872 87.9404 121.331 88.1204C121.79 88.3003 122.281 88.3858 122.774 88.3718Z" fill="white"/>
<path d="M139.113 89.442H137.602L134.741 82.1396L133.493 89.442H132.108L133.739 79.9478H135.204L138.375 88.0227L141.528 79.9478H142.964L144.595 89.442H143.21L141.98 82.1625L139.113 89.442Z" fill="white"/>
<path d="M2.45012 53.3363H10.92C11.9989 53.3261 13.067 53.5506 14.0504 53.9944C14.9885 54.4192 15.8327 55.0261 16.5342 55.7799C17.2397 56.5429 17.795 57.4322 18.1709 58.401C18.5622 59.4176 18.7564 60.4994 18.7432 61.5887C18.7418 62.7287 18.5203 63.8577 18.0908 64.9137C17.6754 65.9725 17.0638 66.9433 16.2881 67.7751C15.6207 68.5173 14.7981 69.1035 13.8787 69.492C12.9508 69.836 11.9667 70.0029 10.9772 69.9842H4.84801V55.7914H3.53175L2.45012 53.3363ZM7.22302 67.5233H10.9887C11.7212 67.5351 12.4475 67.3877 13.1174 67.0913C13.7874 66.7949 14.3849 66.3565 14.8688 65.8064C15.3371 65.2663 15.7001 64.6432 15.939 63.9694C16.1927 63.2627 16.3206 62.517 16.3167 61.7661C16.3223 60.9889 16.2025 60.2159 15.9619 59.4769C15.7395 58.781 15.386 58.1341 14.9203 57.5712C14.4584 57.0233 13.8848 56.5803 13.2378 56.2721C12.5213 55.9396 11.7383 55.7752 10.9486 55.7914H7.22302V67.5233Z" fill="white"/>
<path d="M26.12 67.5235H36.3812V69.9786H23.6878V53.3364H35.3968V55.7915H26.12V60.8506C26.5909 60.5666 27.1147 60.3816 27.6595 60.3069C28.1929 60.2399 28.73 60.2074 29.2676 60.2096H32.8902V62.6647H29.2562C28.7216 62.6637 28.1878 62.7039 27.6595 62.7849C27.1172 62.8712 26.593 63.0472 26.1086 63.3057L26.12 67.5235Z" fill="white"/>
<path d="M47.9128 55.7915V69.9786H45.5492V55.7915H39.6146V53.3364H53.7788V55.7915H47.9128Z" fill="white"/>
<path d="M61.6535 53.0503H64.3318L72.3438 69.9844H69.6197L68.5267 67.5521H63.4619C62.7853 67.5441 62.1093 67.5958 61.4417 67.7066C60.928 67.7901 60.4238 67.9243 59.9366 68.1072C59.5793 68.239 59.2422 68.4201 58.9351 68.6452C58.7223 68.7945 58.5462 68.9902 58.42 69.2175L57.9965 69.9958H55.364L62.5691 55.1163L61.6535 53.0503ZM67.4336 65.097L63.7938 58.0693L60.114 66.0356C60.5532 65.7163 61.0541 65.4921 61.5848 65.3774C62.4904 65.1661 63.4194 65.0719 64.349 65.097H67.4336Z" fill="white"/>
<path d="M78.9652 53.3364H76.5788V69.9786H78.9652V53.3364Z" fill="white"/>
<path d="M84.9857 69.9786V53.3364H87.4179V67.5292H96.6547V69.9786H84.9857Z" fill="white"/>
<path d="M103.059 53.3364H100.672V69.9786H103.059V53.3364Z" fill="white"/>
<path d="M107.631 53.3364H110.773L121.463 66.0527V53.3364H123.89V69.9786H121.486L111.958 58.5385V69.9786H109.571V55.6828L107.631 53.3364Z" fill="white"/>
<path d="M142.632 57.3082C142.005 56.6824 141.263 56.1831 140.446 55.8374C139.6 55.4772 138.688 55.2941 137.768 55.2994C136.884 55.2942 136.007 55.4533 135.181 55.7687C134.404 56.0655 133.695 56.5172 133.098 57.0964C132.509 57.6738 132.04 58.3624 131.719 59.1223C131.377 59.9353 131.205 60.8099 131.215 61.6919C131.208 62.5494 131.392 63.3978 131.753 64.1756C132.099 64.9237 132.594 65.5935 133.207 66.1443C133.821 66.6981 134.531 67.1362 135.301 67.4377C136.871 68.0444 138.608 68.0607 140.189 67.4835C140.915 67.2108 141.587 66.8117 142.175 66.3045V63.2943H140.04L138.998 60.885H144.607V67.3576C143.759 68.2933 142.729 69.0451 141.579 69.5666C140.43 70.0764 139.188 70.3488 137.931 70.3675C136.673 70.3862 135.424 70.1507 134.26 69.6753C132.64 68.9918 131.259 67.8426 130.294 66.3733C129.328 64.9041 128.82 63.1811 128.835 61.4229C128.825 60.2503 129.073 59.0898 129.561 58.0235C130.029 56.9946 130.696 56.0687 131.524 55.2994C133.24 53.721 135.488 52.8483 137.82 52.8558C139.034 52.8461 140.238 53.0857 141.356 53.5597C142.425 54.0131 143.396 54.6679 144.218 55.4883L142.632 57.3082Z" fill="white"/>
<path d="M91.7616 37.9989L73.5228 8.49733L55.2839 37.9989L8.71099 19.594L16.8661 36.4422C16.9191 36.5523 16.9499 36.6718 16.9567 36.7938C16.9635 36.9158 16.9462 37.0379 16.9058 37.1533C16.8655 37.2686 16.8027 37.3748 16.7213 37.4659C16.6399 37.557 16.5413 37.6311 16.4312 37.6841C16.3211 37.7371 16.2016 37.7679 16.0796 37.7747C15.9576 37.7815 15.8355 37.7642 15.7202 37.7238C15.6048 37.6835 15.4986 37.6207 15.4075 37.5393C15.3164 37.4579 15.2423 37.3593 15.1893 37.2492L4.95677 16.1145L54.5228 35.6983L73.5228 4.96631L92.5228 35.6983L142.089 16.1145L131.851 37.2492C131.744 37.4708 131.553 37.6408 131.32 37.7218C131.088 37.8028 130.833 37.7882 130.612 37.6812C130.39 37.5742 130.22 37.3836 130.139 37.1512C130.058 36.9189 130.072 36.6638 130.179 36.4422L138.34 19.594L91.7616 37.9989Z" fill="white"/>
<path d="M126.814 46.5662C123.724 46.6351 120.65 46.0884 117.772 44.9581C112.136 42.8861 105.947 42.8861 100.312 44.9581C94.4763 47.1031 88.0684 47.1031 82.233 44.9581C76.599 42.887 70.4122 42.887 64.7782 44.9581C61.9026 46.0886 58.8308 46.6352 55.7417 46.5662C52.6523 46.6434 49.5785 46.1045 46.6996 44.9809C43.9258 43.884 40.9597 43.3566 37.9779 43.43C34.9941 43.3558 32.026 43.8833 29.2505 44.9809C26.375 46.1118 23.3031 46.6584 20.214 46.5891C17.125 46.6581 14.0531 46.1115 11.1775 44.9809C8.40186 43.8839 5.43384 43.3564 2.45013 43.43C2.32718 43.43 2.20928 43.3812 2.12234 43.2943C2.03541 43.2073 1.98657 43.0894 1.98657 42.9665C1.98657 42.8435 2.03541 42.7256 2.12234 42.6387C2.20928 42.5518 2.32718 42.5029 2.45013 42.5029C5.53916 42.4339 8.61103 42.9805 11.4866 44.1111C14.2622 45.2083 17.2303 45.7357 20.214 45.662C23.1958 45.7354 26.162 45.208 28.9357 44.1111C31.8112 42.9805 34.8831 42.4339 37.9721 42.5029C41.0612 42.4336 44.1331 42.9802 47.0086 44.1111C49.7823 45.208 52.7485 45.7354 55.7303 45.662C58.714 45.7357 61.6821 45.2083 64.4577 44.1111C70.295 41.9661 76.7047 41.9661 82.5421 44.1111C88.1759 46.1826 94.363 46.1826 99.9969 44.1111C105.834 41.9666 112.244 41.9666 118.081 44.1111C123.719 46.1829 129.91 46.1829 135.548 44.1111C138.425 42.9805 141.499 42.4339 144.59 42.5029C144.713 42.5029 144.831 42.5518 144.917 42.6387C145.004 42.7256 145.053 42.8435 145.053 42.9665C145.053 43.0894 145.004 43.2073 144.917 43.2943C144.831 43.3812 144.713 43.43 144.59 43.43C141.606 43.3568 138.638 43.8842 135.862 44.9809C132.983 46.1119 129.907 46.6586 126.814 46.5891" fill="#4A8B99"/>
</svg>
