<svg width="93" height="55" viewBox="0 0 93 55" fill="none" xmlns="http://www.w3.org/2000/svg">
<path d="M5.66917 54.9093H4.74664L1.183 50.0958V54.9093H0.301392V48.738H1.22392L4.78384 53.5478V48.738H5.66917V54.9093Z" fill="white"/>
<path d="M14.8163 54.9095H13.8342L13.1349 53.3435H9.96181L9.27364 54.9095H8.32135L11.115 48.7383H12.0338L14.8163 54.9095ZM11.5539 49.7724L10.3003 52.5846H12.8038L11.5539 49.7724Z" fill="white"/>
<path d="M25.827 54.1507H28.7881V54.9095H24.8748V48.7383H25.827V54.1507Z" fill="white"/>
<path d="M35.6738 54.9095H31.5187V48.7383H35.6738V49.4934H32.471V51.3496H35.4432V52.1085H32.471V54.1507H35.6738V54.9095Z" fill="white"/>
<path d="M44.0509 54.9095H43.1284L39.5685 50.096V54.9095H38.6869V48.7383H39.6057L43.1693 53.5481V48.7383H44.0509V54.9095Z" fill="white"/>
<path d="M48.4252 48.7383H47.473V54.9095H48.4252V48.7383Z" fill="white"/>
<path d="M57.2154 54.9095H56.2929L52.7292 50.096V54.9095H51.8476V48.7383H52.7702L56.3338 53.5481V48.7383H57.2154V54.9095Z" fill="white"/>
<path d="M62.5569 49.4037C62.2395 49.3883 61.925 49.4714 61.6567 49.6418C61.5538 49.7123 61.4693 49.8064 61.41 49.9162C61.3507 50.026 61.3185 50.1483 61.3159 50.273C61.3134 50.3978 61.3406 50.5213 61.3954 50.6334C61.4501 50.7455 61.5308 50.843 61.6307 50.9177C62.0683 51.1758 62.5423 51.3664 63.0368 51.4831C63.56 51.6054 64.0476 51.8473 64.4615 52.1899C64.6032 52.3231 64.7152 52.4848 64.7902 52.6643C64.8651 52.8437 64.9015 53.037 64.8967 53.2314C64.898 53.4773 64.8406 53.72 64.7293 53.9393C64.618 54.1586 64.4561 54.3482 64.2569 54.4925C63.7972 54.8385 63.2324 55.0158 62.6574 54.9947C62.173 54.999 61.6922 54.9119 61.2401 54.738C60.8035 54.5691 60.4041 54.3164 60.0646 53.994L60.604 53.41C60.8788 53.6825 61.2033 53.8998 61.56 54.0498C61.9085 54.191 62.2814 54.2618 62.6574 54.2581C62.9911 54.2726 63.32 54.1743 63.5911 53.9791C63.7062 53.8999 63.8002 53.7938 63.865 53.6699C63.9298 53.5461 63.9635 53.4084 63.963 53.2686C63.9635 53.1535 63.9372 53.0397 63.8862 52.9365C63.8352 52.8332 63.7609 52.7431 63.6692 52.6735C63.3098 52.4452 62.9151 52.278 62.5011 52.1787C61.8955 52.0371 61.3265 51.7697 60.8309 51.3938C60.6859 51.2566 60.5718 51.0902 60.4961 50.9054C60.4204 50.7207 60.3849 50.522 60.392 50.3225C60.3868 50.0855 60.4401 49.8509 60.5472 49.6394C60.6542 49.4279 60.8117 49.246 61.0058 49.1098C61.4565 48.7862 62.0025 48.6226 62.5569 48.6448C62.9485 48.642 63.3371 48.7127 63.7027 48.8531C64.0729 48.9987 64.4143 49.209 64.7107 49.4744L64.1602 50.0584C63.9218 49.8517 63.6534 49.6824 63.3641 49.5562C63.1115 49.4528 62.8411 49.3998 62.5681 49.4" fill="white"/>
<path d="M69.0633 52.1417H68.7546V54.9056H67.8023V48.738H68.7546V51.3866H69.0559C69.3719 51.405 69.6875 51.3449 69.9747 51.2118C70.2605 51.0156 70.5024 50.7623 70.6852 50.4678L71.857 48.7455H72.8576L71.6858 50.4678C71.4651 50.7852 71.2816 51.0332 71.1353 51.2118C71.0077 51.3776 70.8672 51.5331 70.7149 51.6767L73.0957 54.9205H71.9797L69.8966 52.0822C69.7738 52.1084 69.6496 52.127 69.5246 52.138C69.3907 52.138 69.2307 52.138 69.0447 52.138" fill="white"/>
<path d="M78.5119 54.9981C77.6123 55.0259 76.7376 54.7 76.0754 54.0904C75.7671 53.7991 75.5216 53.4479 75.3538 53.0584C75.186 52.6689 75.0994 52.2492 75.0994 51.8251C75.0994 51.4009 75.186 50.9812 75.3538 50.5917C75.5216 50.2022 75.7671 49.851 76.0754 49.5597C76.7517 48.9734 77.6168 48.6506 78.5119 48.6506C79.407 48.6506 80.272 48.9734 80.9484 49.5597C81.2566 49.851 81.5022 50.2022 81.67 50.5917C81.8378 50.9812 81.9243 51.4009 81.9243 51.8251C81.9243 52.2492 81.8378 52.6689 81.67 53.0584C81.5022 53.4479 81.2566 53.7991 80.9484 54.0904C80.2864 54.7004 79.4116 55.0263 78.5119 54.9981ZM78.5119 54.2132C78.8324 54.2226 79.1514 54.1671 79.4499 54.0501C79.7484 53.9331 80.0203 53.7571 80.2491 53.5325C80.6951 53.0753 80.9448 52.4619 80.9448 51.8232C80.9448 51.1845 80.6951 50.5711 80.2491 50.1139C79.7778 49.6735 79.1569 49.4286 78.5119 49.4286C77.8669 49.4286 77.246 49.6735 76.7747 50.1139C76.3287 50.5711 76.079 51.1845 76.079 51.8232C76.079 52.4619 76.3287 53.0753 76.7747 53.5325C77.0036 53.7569 77.2755 53.9328 77.5739 54.0498C77.8724 54.1668 78.1914 54.2223 78.5119 54.2132Z" fill="white"/>
<path d="M89.1321 54.9093H88.1501L86.2902 50.1627L85.4792 54.9093H84.579L85.6392 48.738H86.5915L88.6523 53.9868L90.7019 48.738H91.6356L92.6958 54.9093H91.7956L90.9958 50.1776L89.1321 54.9093Z" fill="white"/>
<path d="M0.301392 31.4404H5.80681C6.50806 31.4338 7.20236 31.5797 7.84158 31.8682C8.45129 32.1443 9.00006 32.5388 9.456 33.0288C9.9146 33.5247 10.2755 34.1027 10.5199 34.7325C10.7742 35.3933 10.9005 36.0965 10.8919 36.8045C10.891 37.5455 10.747 38.2793 10.4678 38.9657C10.1978 39.6539 9.80027 40.285 9.29605 40.8256C8.86227 41.3081 8.32759 41.6891 7.72998 41.9416C7.12685 42.1652 6.48713 42.2737 5.844 42.2615H1.86002V33.0362H1.00445L0.301392 31.4404ZM3.40377 40.662H5.85145C6.32756 40.6696 6.79967 40.5738 7.23513 40.3812C7.67059 40.1885 8.059 39.9035 8.37352 39.546C8.67794 39.1949 8.91388 38.7899 9.06913 38.3519C9.23408 37.8926 9.31718 37.4078 9.31465 36.9198C9.31826 36.4146 9.24039 35.9122 9.08401 35.4318C8.93948 34.9795 8.70967 34.559 8.407 34.1931C8.10676 33.8369 7.73389 33.549 7.31336 33.3487C6.84765 33.1326 6.33872 33.0257 5.82541 33.0362H3.40377V40.662Z" fill="white"/>
<path d="M15.687 40.6622H22.3567V42.258H14.106V31.4407H21.7169V33.0365H15.687V36.3249C15.993 36.1403 16.3335 36.02 16.6876 35.9715C17.0343 35.9279 17.3835 35.9068 17.7329 35.9082H20.0876V37.5041H17.7255C17.378 37.5034 17.031 37.5295 16.6876 37.5822C16.3351 37.6383 15.9944 37.7527 15.6795 37.9207L15.687 40.6622Z" fill="white"/>
<path d="M29.8519 33.0365V42.258H28.3156V33.0365H24.4581V31.4407H33.6648V33.0365H29.8519Z" fill="white"/>
<path d="M38.7836 31.2544H40.5245L45.7324 42.2615H43.9617L43.2512 40.6806H39.9591C39.5193 40.6753 39.0799 40.709 38.646 40.781C38.3121 40.8352 37.9844 40.9224 37.6677 41.0414C37.4354 41.127 37.2163 41.2447 37.0167 41.3911C36.8784 41.4881 36.7639 41.6153 36.6819 41.763L36.4066 42.2689H34.6955L39.3788 32.5973L38.7836 31.2544ZM42.5407 39.0847L40.1749 34.5167L37.783 39.6948C38.0684 39.4872 38.394 39.3415 38.739 39.267C39.3276 39.1297 39.9315 39.0684 40.5357 39.0847H42.5407Z" fill="white"/>
<path d="M50.0362 31.4407H48.485V42.258H50.0362V31.4407Z" fill="white"/>
<path d="M53.9494 42.258V31.4407H55.5303V40.6659H61.5342V42.258H53.9494Z" fill="white"/>
<path d="M65.6967 31.4407H64.1455V42.258H65.6967V31.4407Z" fill="white"/>
<path d="M68.669 31.4407H70.7112L77.66 39.7062V31.4407H79.2372V42.258H77.6749L71.4813 34.822V42.258H69.9301V32.9658L68.669 31.4407Z" fill="white"/>
<path d="M91.4199 34.0219C91.0118 33.6152 90.5294 33.2906 89.9989 33.0659C89.4485 32.8318 88.8561 32.7128 88.258 32.7163C87.6835 32.7128 87.1133 32.8163 86.5766 33.0213C86.0714 33.2142 85.6107 33.5078 85.2226 33.8843C84.8395 34.2596 84.5348 34.7072 84.3261 35.2011C84.1036 35.7295 83.9922 36.2981 83.9987 36.8713C83.9942 37.4288 84.1136 37.9802 84.3484 38.4858C84.5732 38.972 84.8947 39.4074 85.2932 39.7654C85.6927 40.1254 86.154 40.4102 86.6547 40.6061C87.6751 41.0005 88.8039 41.011 89.8315 40.6359C90.3036 40.4586 90.7406 40.1992 91.1223 39.8696V37.9129H89.7348L89.0578 36.3468H92.7032V40.554C92.1524 41.1622 91.4827 41.6509 90.7354 41.9899C89.988 42.3213 89.1813 42.4983 88.3638 42.5105C87.5462 42.5226 86.7347 42.3696 85.9777 42.0606C84.9247 41.6163 84.0274 40.8693 83.3996 39.9143C82.7717 38.9593 82.4417 37.8394 82.4513 36.6965C82.4451 35.9343 82.6064 35.18 82.9237 34.4869C83.2277 33.8181 83.6614 33.2163 84.1996 32.7163C85.3148 31.6903 86.7761 31.123 88.2915 31.1279C89.081 31.1216 89.8634 31.2773 90.5903 31.5854C91.285 31.8802 91.9164 32.3058 92.4503 32.839L91.4199 34.0219Z" fill="white"/>
<path d="M58.3539 21.4711L46.4986 2.29516L34.6434 21.4711L4.37105 9.508L9.67187 20.4593C9.70631 20.5309 9.72632 20.6085 9.73075 20.6878C9.73518 20.7671 9.72395 20.8465 9.6977 20.9215C9.67144 20.9964 9.63069 21.0655 9.57775 21.1247C9.52481 21.1839 9.46073 21.2321 9.38916 21.2665C9.3176 21.301 9.23995 21.321 9.16065 21.3254C9.08136 21.3298 9.00196 21.3186 8.927 21.2923C8.85205 21.2661 8.783 21.2253 8.72379 21.1724C8.66459 21.1195 8.61639 21.0554 8.58195 20.9838L1.93082 7.24631L34.1486 19.9757L46.4986 0L58.8486 19.9757L91.0664 7.24631L84.4116 20.9838C84.342 21.1278 84.2181 21.2384 84.0671 21.291C83.916 21.3437 83.7503 21.3342 83.6062 21.2647C83.4622 21.1951 83.3517 21.0712 83.299 20.9201C83.2463 20.7691 83.2558 20.6033 83.3254 20.4593L88.6299 9.508L58.3539 21.4711Z" fill="white"/>
<path d="M81.1379 27.0397C79.1289 27.0845 77.131 26.7292 75.2605 25.9944C71.5973 24.6477 67.5745 24.6477 63.9112 25.9944C60.1182 27.3887 55.9531 27.3887 52.1601 25.9944C48.498 24.6483 44.4766 24.6483 40.8145 25.9944C38.9454 26.7293 36.9487 27.0846 34.9408 27.0397C32.9327 27.0899 30.9347 26.7396 29.0634 26.0093C27.2605 25.2963 25.3325 24.9535 23.3943 25.0012C21.4549 24.953 19.5256 25.2958 17.7215 26.0093C15.8525 26.7443 13.8557 27.0997 11.8479 27.0546C9.83999 27.0995 7.84328 26.7441 5.97418 26.0093C4.16999 25.2962 2.24078 24.9534 0.30137 25.0012C0.221458 25.0012 0.144819 24.9695 0.0883127 24.913C0.0318061 24.8564 6.10352e-05 24.7798 6.10352e-05 24.6999C6.10352e-05 24.62 0.0318061 24.5433 0.0883127 24.4868C0.144819 24.4303 0.221458 24.3986 0.30137 24.3986C2.30924 24.3537 4.30595 24.709 6.17505 25.4439C7.97921 26.1571 9.90844 26.4999 11.8479 26.452C13.786 26.4997 15.714 26.1569 17.5169 25.4439C19.386 24.709 21.3828 24.3537 23.3906 24.3986C25.3985 24.3535 27.3953 24.7088 29.2643 25.4439C31.0672 26.1569 32.9952 26.4997 34.9334 26.452C36.8728 26.4999 38.802 26.1571 40.6062 25.4439C44.4004 24.0497 48.5667 24.0497 52.361 25.4439C56.023 26.7904 60.0446 26.7904 63.7066 25.4439C67.5009 24.05 71.6671 24.05 75.4614 25.4439C79.1259 26.7906 83.1499 26.7906 86.8145 25.4439C88.6849 24.709 90.6828 24.3537 92.6919 24.3986C92.7718 24.3986 92.8484 24.4303 92.9049 24.4868C92.9614 24.5433 92.9932 24.62 92.9932 24.6999C92.9932 24.7798 92.9614 24.8564 92.9049 24.913C92.8484 24.9695 92.7718 25.0012 92.6919 25.0012C90.7525 24.9536 88.8233 25.2964 87.0191 26.0093C85.1474 26.7444 83.1482 27.0998 81.1379 27.0546" fill="#4A8B99"/>
</svg>
