<svg width="149" height="95" viewBox="0 0 149 95" fill="none" xmlns="http://www.w3.org/2000/svg">
<path d="M10.7807 90.0465H9.35187L3.83229 82.591V90.0465H2.4668V80.488H3.89567L9.40948 87.9377V80.488H10.7807V90.0465Z" fill="#121212"/>
<path d="M24.9484 90.0464H23.4273L22.3441 87.6208H17.4295L16.3636 90.0464H14.8887L19.2156 80.488H20.6387L24.9484 90.0464ZM19.8955 82.0897L17.9538 86.4455H21.8314L19.8955 82.0897Z" fill="#121212"/>
<path d="M42.0023 88.8711H46.5885V90.0464H40.5273V80.488H42.0023V88.8711Z" fill="#121212"/>
<path d="M57.2535 90.0464H50.8179V80.488H57.2535V81.6576H52.2928V84.5326H56.8963V85.708H52.2928V88.8711H57.2535V90.0464Z" fill="#121212"/>
<path d="M70.2286 90.0464H68.7997L63.2859 82.591V90.0464H61.9204V80.488H63.3435L68.8631 87.9377V80.488H70.2286V90.0464Z" fill="#121212"/>
<path d="M77.0042 80.488H75.5293V90.0464H77.0042V80.488Z" fill="#121212"/>
<path d="M90.6186 90.0464H89.1897L83.6702 82.591V90.0464H82.3047V80.488H83.7336L89.2531 87.9377V80.488H90.6186V90.0464Z" fill="#121212"/>
<path d="M98.8925 81.5194C98.4008 81.4955 97.9138 81.6243 97.4982 81.8881C97.3388 81.9974 97.2078 82.1431 97.116 82.3131C97.0242 82.4832 96.9743 82.6727 96.9703 82.8658C96.9664 83.059 97.0086 83.2504 97.0934 83.424C97.1781 83.5977 97.3031 83.7486 97.4578 83.8643C98.1356 84.2641 98.8699 84.5593 99.6357 84.7401C100.446 84.9295 101.201 85.3042 101.842 85.8348C102.062 86.0412 102.235 86.2916 102.351 86.5695C102.468 86.8475 102.524 87.1468 102.517 87.448C102.518 87.8289 102.429 88.2047 102.257 88.5444C102.085 88.8841 101.834 89.1778 101.526 89.4012C100.813 89.9371 99.9387 90.2117 99.048 90.179C98.2978 90.1858 97.5531 90.0509 96.8529 89.7815C96.1766 89.5199 95.5581 89.1284 95.0322 88.6291L95.8677 87.7246C96.2932 88.1467 96.7959 88.4831 97.3484 88.7156C97.8881 88.9342 98.4658 89.0438 99.048 89.0382C99.5649 89.0606 100.074 88.9084 100.494 88.6061C100.672 88.4833 100.818 88.319 100.919 88.1272C101.019 87.9354 101.071 87.7221 101.07 87.5056C101.071 87.3272 101.03 87.1511 100.951 86.9911C100.872 86.8312 100.757 86.6917 100.615 86.5838C100.059 86.2303 99.4473 85.9713 98.8061 85.8175C97.868 85.5982 96.9866 85.184 96.2191 84.6018C95.9945 84.3893 95.8177 84.1315 95.7005 83.8454C95.5833 83.5593 95.5283 83.2515 95.5392 82.9425C95.5313 82.5754 95.6138 82.212 95.7796 81.8844C95.9454 81.5568 96.1894 81.2751 96.4899 81.0642C97.1881 80.563 98.0337 80.3095 98.8925 80.344C99.499 80.3397 100.101 80.4491 100.667 80.6666C101.241 80.8921 101.769 81.2179 102.228 81.6288L101.376 82.5334C101.006 82.2133 100.591 81.951 100.143 81.7556C99.7514 81.5955 99.3326 81.5133 98.9098 81.5136" fill="#121212"/>
<path d="M108.969 85.7599H108.491V90.0407H107.016V80.488H108.491V84.5903H108.958C109.447 84.6187 109.936 84.5257 110.381 84.3195C110.824 84.0157 111.198 83.6233 111.481 83.1671L113.296 80.4995H114.846L113.031 83.1671C112.689 83.6588 112.405 84.0429 112.178 84.3195C111.981 84.5764 111.763 84.8172 111.527 85.0397L115.215 90.0637H113.486L110.26 85.6677C110.07 85.7082 109.877 85.737 109.684 85.7541C109.476 85.7541 109.229 85.7541 108.94 85.7541" fill="#121212"/>
<path d="M123.604 90.1847C122.21 90.2277 120.856 89.723 119.83 88.7789C119.353 88.3276 118.972 87.7837 118.712 87.1804C118.452 86.577 118.318 85.927 118.318 85.2701C118.318 84.6132 118.452 83.9631 118.712 83.3598C118.972 82.7565 119.353 82.2126 119.83 81.7613C120.878 80.8532 122.217 80.3534 123.604 80.3534C124.99 80.3534 126.33 80.8532 127.378 81.7613C127.855 82.2126 128.235 82.7565 128.495 83.3598C128.755 83.9631 128.889 84.6132 128.889 85.2701C128.889 85.927 128.755 86.577 128.495 87.1804C128.235 87.7837 127.855 88.3276 127.378 88.7789C126.352 89.7235 124.997 90.2283 123.604 90.1847ZM123.604 88.969C124.1 88.9835 124.594 88.8976 125.057 88.7164C125.519 88.5352 125.94 88.2625 126.294 87.9146C126.985 87.2065 127.372 86.2565 127.372 85.2672C127.372 84.2779 126.985 83.3279 126.294 82.6198C125.565 81.9377 124.603 81.5583 123.604 81.5583C122.605 81.5583 121.643 81.9377 120.913 82.6198C120.222 83.3279 119.836 84.2779 119.836 85.2672C119.836 86.2565 120.222 87.2065 120.913 87.9146C121.268 88.2622 121.689 88.5348 122.151 88.7159C122.613 88.8971 123.107 88.9832 123.604 88.969Z" fill="#121212"/>
<path d="M140.053 90.0464H138.532L135.651 82.6947L134.395 90.0464H133L134.643 80.488H136.117L139.309 88.6176L142.484 80.488H143.93L145.572 90.0464H144.178L142.939 82.7177L140.053 90.0464Z" fill="#121212"/>
<path d="M2.4668 53.6968H10.9939C12.0801 53.6865 13.1554 53.9126 14.1455 54.3593C15.0899 54.787 15.9398 55.398 16.646 56.1569C17.3563 56.9251 17.9154 57.8203 18.2938 58.7957C18.6877 59.8192 18.8833 60.9083 18.87 62.0049C18.8686 63.1526 18.6456 64.2893 18.2132 65.3524C17.795 66.4184 17.1792 67.3958 16.3983 68.2332C15.7264 68.9804 14.8983 69.5705 13.9726 69.9616C13.0385 70.308 12.0476 70.476 11.0515 70.4571H4.88089V56.1685H3.55573L2.4668 53.6968ZM7.27194 67.9797H11.0631C11.8005 67.9916 12.5317 67.8432 13.2062 67.5447C13.8806 67.2463 14.4822 66.805 14.9694 66.2512C15.4409 65.7074 15.8063 65.0801 16.0468 64.4017C16.3023 63.6902 16.431 62.9395 16.4271 62.1835C16.4327 61.4011 16.312 60.6229 16.0699 59.8789C15.846 59.1783 15.49 58.527 15.0212 57.9603C14.5562 57.4087 13.9787 56.9628 13.3273 56.6524C12.606 56.3177 11.8178 56.1521 11.0227 56.1685H7.27194V67.9797Z" fill="#121212"/>
<path d="M26.2963 67.9796H36.6268V70.4513H23.8477V53.6967H35.6358V56.1685H26.2963V61.2617C26.7704 60.9758 27.2977 60.7896 27.8462 60.7143C28.3832 60.6469 28.924 60.6142 29.4652 60.6164H33.1123V63.0881H29.4537C28.9155 63.0871 28.3781 63.1275 27.8462 63.2091C27.3002 63.2959 26.7725 63.4731 26.2848 63.7334L26.2963 67.9796Z" fill="#121212"/>
<path d="M48.2366 56.1685V70.4513H45.8571V56.1685H39.8823V53.6967H54.1422V56.1685H48.2366Z" fill="#121212"/>
<path d="M62.0702 53.4087H64.7666L72.8328 70.4571H70.0903L68.9899 68.0085H63.8909C63.2097 68.0004 62.5291 68.0525 61.8571 68.164C61.3399 68.248 60.8323 68.3831 60.3418 68.5674C59.9821 68.7 59.6427 68.8823 59.3335 69.1089C59.1193 69.2593 58.942 69.4563 58.815 69.6851L58.3886 70.4687H55.7383L62.9921 55.4886L62.0702 53.4087ZM67.8894 65.5368L64.2251 58.4616L60.5204 66.4817C60.9625 66.1602 61.4668 65.9345 62.0011 65.8191C62.9128 65.6064 63.8481 65.5115 64.7839 65.5368H67.8894Z" fill="#121212"/>
<path d="M79.4988 53.6967H77.0962V70.4513H79.4988V53.6967Z" fill="#121212"/>
<path d="M85.5601 70.4513V53.6967H88.0087V67.9854H97.3079V70.4513H85.5601Z" fill="#121212"/>
<path d="M103.755 53.6967H101.353V70.4513H103.755V53.6967Z" fill="#121212"/>
<path d="M108.358 53.6967H111.521L122.284 66.4989V53.6967H124.727V70.4513H122.307L112.714 58.934V70.4513H110.312V56.059L108.358 53.6967Z" fill="#121212"/>
<path d="M143.596 57.6953C142.964 57.0653 142.217 56.5626 141.395 56.2145C140.543 55.8519 139.625 55.6676 138.699 55.673C137.809 55.6677 136.926 55.8279 136.094 56.1454C135.312 56.4442 134.598 56.8989 133.997 57.4821C133.404 58.0633 132.932 58.7566 132.609 59.5217C132.264 60.3401 132.092 61.2207 132.102 62.1086C132.095 62.972 132.28 63.8261 132.643 64.6091C132.992 65.3623 133.489 66.0366 134.107 66.5911C134.725 67.1486 135.44 67.5897 136.215 67.8932C137.796 68.504 139.544 68.5204 141.136 67.9393C141.867 67.6648 142.544 67.263 143.135 66.7524V63.7219H140.986L139.937 61.2962H145.584V67.8126C144.731 68.7546 143.693 69.5116 142.536 70.0365C141.378 70.5498 140.129 70.824 138.863 70.8428C137.596 70.8616 136.339 70.6246 135.167 70.146C133.536 69.4578 132.146 68.3008 131.174 66.8217C130.201 65.3425 129.69 63.6079 129.705 61.8378C129.695 60.6572 129.945 59.4889 130.437 58.4155C130.907 57.3796 131.579 56.4474 132.413 55.673C134.14 54.0839 136.404 53.2052 138.751 53.2128C139.973 53.203 141.185 53.4442 142.311 53.9214C143.387 54.378 144.365 55.0372 145.192 55.8631L143.596 57.6953Z" fill="#121212"/>
<path d="M92.3816 38.2558L74.0195 8.55488L55.6574 38.2558L8.76982 19.7266L16.98 36.6886C17.0334 36.7995 17.0644 36.9197 17.0712 37.0425C17.0781 37.1654 17.0607 37.2883 17.02 37.4044C16.9794 37.5205 16.9163 37.6275 16.8343 37.7192C16.7523 37.8109 16.653 37.8855 16.5422 37.9389C16.4313 37.9922 16.3111 38.0232 16.1882 38.0301C16.0654 38.0369 15.9424 38.0195 15.8264 37.9789C15.7103 37.9382 15.6033 37.8751 15.5116 37.7931C15.4199 37.7111 15.3453 37.6118 15.2919 37.501L4.99023 16.2235L54.8911 35.9396L74.0195 5L93.1479 35.9396L143.049 16.2235L132.741 37.501C132.634 37.7241 132.442 37.8952 132.208 37.9768C131.974 38.0584 131.717 38.0437 131.494 37.936C131.271 37.8283 131.1 37.6363 131.018 37.4024C130.937 37.1685 130.951 36.9117 131.059 36.6886L139.275 19.7266L92.3816 38.2558Z" fill="#121212"/>
<path d="M127.671 46.8808C124.559 46.9502 121.465 46.3998 118.568 45.2618C112.894 43.1759 106.663 43.1759 100.989 45.2618C95.1147 47.4213 88.6634 47.4213 82.7887 45.2618C77.1166 43.1768 70.8879 43.1768 65.2159 45.2618C62.3209 46.4 59.2283 46.9503 56.1184 46.8808C53.0081 46.9586 49.9134 46.4161 47.0151 45.2849C44.2226 44.1805 41.2365 43.6495 38.2345 43.7235C35.2306 43.6487 32.2424 44.1798 29.4481 45.2849C26.5532 46.4233 23.4605 46.9737 20.3506 46.9038C17.2407 46.9734 14.1481 46.423 11.2531 45.2849C8.45864 44.1804 5.47056 43.6494 2.46669 43.7235C2.34291 43.7235 2.22421 43.6743 2.13669 43.5868C2.04917 43.4993 2 43.3806 2 43.2568C2 43.133 2.04917 43.0143 2.13669 42.9268C2.22421 42.8393 2.34291 42.7901 2.46669 42.7901C5.57659 42.7206 8.66922 43.2709 11.5642 44.4091C14.3586 45.5137 17.3467 46.0447 20.3506 45.9705C23.3526 46.0444 26.3387 45.5134 29.1312 44.4091C32.0262 43.2709 35.1188 42.7206 38.2287 42.7901C41.3386 42.7203 44.4313 43.2706 47.3262 44.4091C50.1187 45.5134 53.1049 46.0444 56.1069 45.9705C59.1107 46.0447 62.0988 45.5137 64.8932 44.4091C70.77 42.2497 77.223 42.2497 83.0998 44.4091C88.7717 46.4946 95.0006 46.4946 100.673 44.4091C106.549 42.2502 113.002 42.2502 118.879 44.4091C124.555 46.4949 130.788 46.4949 136.463 44.4091C139.36 43.2709 142.455 42.7206 145.567 42.7901C145.69 42.7901 145.809 42.8393 145.897 42.9268C145.984 43.0143 146.033 43.133 146.033 43.2568C146.033 43.3806 145.984 43.4993 145.897 43.5868C145.809 43.6743 145.69 43.7235 145.567 43.7235C142.563 43.6497 139.575 44.1807 136.78 45.2849C133.881 46.4235 130.785 46.9738 127.671 46.9038" fill="#4A8B99"/>
</svg>
