<svg width="30" height="29" viewBox="0 0 30 29" fill="none" xmlns="http://www.w3.org/2000/svg">
<path d="M15 19C14.7348 19 14.4804 18.8946 14.2929 18.7071C14.1054 18.5196 14 18.2652 14 18V10C14 9.73478 14.1054 9.48043 14.2929 9.29289C14.4804 9.10536 14.7348 9 15 9C15.2652 9 15.5196 9.10536 15.7071 9.29289C15.8946 9.48043 16 9.73478 16 10V18C16 18.2652 15.8946 18.5196 15.7071 18.7071C15.5196 18.8946 15.2652 19 15 19Z" fill="#121212"/>
<path d="M15 25C14.6044 25 14.2178 24.8827 13.8889 24.6629C13.56 24.4432 13.3036 24.1308 13.1522 23.7654C13.0009 23.3999 12.9613 22.9978 13.0384 22.6098C13.1156 22.2219 13.3061 21.8655 13.5858 21.5858C13.8655 21.3061 14.2219 21.1156 14.6098 21.0384C14.9978 20.9613 15.3999 21.0009 15.7654 21.1522C16.1308 21.3036 16.4432 21.56 16.6629 21.8889C16.8827 22.2178 17 22.6044 17 23C17 23.5304 16.7893 24.0391 16.4142 24.4142C16.0391 24.7893 15.5304 25 15 25Z" fill="#121212"/>
<path fill-rule="evenodd" clip-rule="evenodd" d="M1.62512 28.5852C2.11125 28.8607 2.66123 29.0037 3.22 28.9999H26.78C27.3388 29.0037 27.8888 28.8607 28.3749 28.5852C28.861 28.3097 29.2662 27.9113 29.55 27.4299C29.8339 26.9594 29.9889 26.4224 29.9994 25.8729C30.01 25.3235 29.8757 24.781 29.61 24.2999L17.83 2.66991C17.5513 2.16323 17.1416 1.74068 16.6438 1.44638C16.146 1.15208 15.5783 0.996826 15 0.996826C14.4217 0.996826 13.854 1.15208 13.3562 1.44638C12.8584 1.74068 12.4488 2.16323 12.17 2.66991L0.390005 24.2999C0.124354 24.781 -0.00995737 25.3235 0.000575055 25.8729C0.0111075 26.4224 0.166113 26.9594 0.450005 27.4299C0.733764 27.9113 1.13899 28.3097 1.62512 28.5852ZM14.3754 3.16278C14.5644 3.0515 14.7807 2.9951 15 2.99991C15.2193 2.9951 15.4356 3.0515 15.6246 3.16278C15.8136 3.27407 15.9678 3.43583 16.07 3.62991L27.78 25.2499C27.8859 25.4248 27.9419 25.6254 27.9419 25.8299C27.9419 26.0344 27.8859 26.235 27.78 26.4099C27.6776 26.5855 27.5319 26.7319 27.3568 26.8351C27.1818 26.9384 26.9832 26.9951 26.78 26.9999H3.15C2.94681 26.9951 2.74822 26.9384 2.57316 26.8351C2.39811 26.7319 2.25243 26.5855 2.15 26.4099C2.04411 26.235 1.98813 26.0344 1.98813 25.8299C1.98813 25.6254 2.04411 25.4248 2.15 25.2499L13.93 3.62991C14.0322 3.43583 14.1864 3.27407 14.3754 3.16278Z" fill="#121212"/>
</svg>
