<svg width="15" height="16" viewBox="0 0 15 16" fill="none" xmlns="http://www.w3.org/2000/svg">
<path d="M10.4516 11.8883C10.5219 11.917 10.5972 11.9316 10.6731 11.9312C10.749 11.9316 10.8243 11.917 10.8946 11.8883C10.9649 11.8596 11.0288 11.8173 11.0827 11.7638C11.1368 11.7102 11.1797 11.6464 11.209 11.5761C11.2383 11.5058 11.2534 11.4304 11.2534 11.3542C11.2534 11.2781 11.2383 11.2027 11.209 11.1324C11.1797 11.0621 11.1368 10.9983 11.0827 10.9446L8.07693 7.94462V3.56577C8.07693 3.41276 8.01615 3.26602 7.90795 3.15783C7.79976 3.04963 7.65302 2.98885 7.50001 2.98885C7.347 2.98885 7.20026 3.04963 7.09206 3.15783C6.98387 3.26602 6.92308 3.41276 6.92308 3.56577V8.18116C6.92265 8.25708 6.9372 8.33235 6.96591 8.40264C6.99462 8.47293 7.03692 8.53686 7.09039 8.59077L10.2635 11.7638C10.3174 11.8173 10.3813 11.8596 10.4516 11.8883Z" fill="#D96832"/>
<path fill-rule="evenodd" clip-rule="evenodd" d="M3.33323 14.4172C4.56659 15.2413 6.01664 15.6812 7.5 15.6812C9.48912 15.6812 11.3968 14.891 12.8033 13.4845C14.2098 12.0779 15 10.1703 15 8.18115C15 6.69779 14.5601 5.24775 13.736 4.01438C12.9119 2.78101 11.7406 1.81972 10.3701 1.25206C8.99968 0.684402 7.49168 0.535877 6.03682 0.825266C4.58197 1.11466 3.2456 1.82896 2.1967 2.87785C1.14781 3.92675 0.433503 5.26312 0.144114 6.71798C-0.145275 8.17283 0.00324963 9.68083 0.570907 11.0513C1.13856 12.4217 2.09986 13.5931 3.33323 14.4172ZM3.97427 2.90452C5.01789 2.2072 6.24485 1.835 7.5 1.835C9.18311 1.835 10.7973 2.50361 11.9874 3.69375C13.1775 4.88388 13.8462 6.49805 13.8462 8.18115C13.8462 9.4363 13.474 10.6633 12.7766 11.7069C12.0793 12.7505 11.0882 13.5639 9.92857 14.0442C8.76896 14.5246 7.49296 14.6502 6.26193 14.4054C5.0309 14.1605 3.90012 13.5561 3.01259 12.6686C2.12507 11.781 1.52066 10.6503 1.27579 9.41923C1.03092 8.18819 1.1566 6.91219 1.63692 5.75259C2.11725 4.59298 2.93065 3.60185 3.97427 2.90452Z" fill="#D96832"/>
</svg>
