<svg width="27" height="28" viewBox="0 0 27 28" fill="none" xmlns="http://www.w3.org/2000/svg">
<g clip-path="url(#clip0)">
<path fill-rule="evenodd" clip-rule="evenodd" d="M7.78697 0.655273H20.387C24.347 0.655273 27.587 3.89527 27.587 7.85527V20.5067C27.587 24.4667 24.347 27.7067 20.387 27.7067H7.78697C3.82698 27.7067 0.586975 24.4667 0.586975 20.5067V7.85527C0.586975 3.89527 3.82698 0.655273 7.78697 0.655273ZM22.2127 4.71813C22.8813 4.71813 23.447 5.28384 23.447 5.95242C23.447 6.6467 22.8813 7.21242 22.2127 7.21242C21.5184 7.21242 20.9784 6.6467 20.9784 5.95242C20.9784 5.28384 21.5184 4.71813 22.2127 4.71813ZM14.087 6.4667C16.2213 6.4667 18.1241 7.34099 19.5384 8.72956C20.927 10.1181 21.8013 12.0467 21.8013 14.181C21.8013 16.3153 20.927 18.2181 19.5384 19.6324C18.1241 21.021 16.2213 21.8953 14.087 21.8953C11.9527 21.8953 10.0241 21.021 8.63555 19.6324C7.24697 18.2181 6.37269 16.3153 6.37269 14.181C6.37269 12.0467 7.24697 10.1181 8.63555 8.72956C10.0241 7.34099 11.9527 6.4667 14.087 6.4667ZM17.1727 11.0953C16.3755 10.2981 15.2955 9.80956 14.087 9.80956C12.8784 9.80956 11.7727 10.2981 11.0013 11.0953C10.2041 11.8667 9.71555 12.9724 9.71555 14.181C9.71555 15.3896 10.2041 16.4696 11.0013 17.2667C11.7727 18.0638 12.8784 18.5524 14.087 18.5524C15.2955 18.5524 16.3755 18.0638 17.1727 17.2667C17.9698 16.4696 18.4584 15.3896 18.4584 14.181C18.4584 12.9724 17.9698 11.8667 17.1727 11.0953Z" fill="white"/>
</g>
<defs>
<clipPath id="clip0">
<rect width="27" height="27" fill="white" transform="translate(0 0.681152)"/>
</clipPath>
</defs>
</svg>
