<svg width="15" height="20" viewBox="0 0 15 20" fill="none" xmlns="http://www.w3.org/2000/svg">
<path d="M6.74613 19.411C6.74624 19.4111 6.74633 19.4112 7.28125 18.9312L7.81617 19.4112C7.67985 19.5631 7.48536 19.6499 7.28125 19.6499C7.07714 19.6499 6.88246 19.5629 6.74613 19.411Z" fill="#D96832"/>
<path fill-rule="evenodd" clip-rule="evenodd" d="M7.28125 5.0874C5.9178 5.0874 4.8125 6.1927 4.8125 7.55615C4.8125 8.91961 5.9178 10.0249 7.28125 10.0249C8.6447 10.0249 9.75 8.91961 9.75 7.55615C9.75 6.1927 8.6447 5.0874 7.28125 5.0874ZM6.25 7.55615C6.25 6.98661 6.71171 6.5249 7.28125 6.5249C7.85079 6.5249 8.3125 6.98661 8.3125 7.55615C8.3125 8.1257 7.85079 8.5874 7.28125 8.5874C6.71171 8.5874 6.25 8.1257 6.25 7.55615Z" fill="#D96832"/>
<path fill-rule="evenodd" clip-rule="evenodd" d="M6.74613 19.411L7.28125 18.9312C7.81617 19.4112 7.81607 19.4113 7.81617 19.4112L7.82187 19.4049L7.83689 19.388L7.89376 19.3238C7.94319 19.2679 8.01513 19.1859 8.10636 19.0806C8.2888 18.8701 8.54859 18.5663 8.85999 18.1906C9.48217 17.4401 10.3133 16.3993 11.146 15.2414C11.9768 14.0862 12.8195 12.8002 13.4574 11.5609C14.0834 10.3447 14.5625 9.0797 14.5625 7.99365C14.5625 6.06254 13.7954 4.21053 12.4299 2.84503C11.0644 1.47953 9.21236 0.712402 7.28125 0.712402C5.35014 0.712402 3.49813 1.47953 2.13263 2.84503C0.767129 4.21053 0 6.06254 0 7.99365C0 9.0797 0.479127 10.3447 1.10507 11.5609C1.74297 12.8002 2.58566 14.0862 3.41648 15.2414C4.24918 16.3993 5.08033 17.4401 5.70251 18.1906C6.01391 18.5663 6.2737 18.8701 6.45614 19.0806C6.54737 19.1859 6.61931 19.2679 6.66874 19.3238L6.7256 19.388L6.74063 19.4049L6.74613 19.411ZM3.14909 3.8615C4.24501 2.76558 5.73139 2.1499 7.28125 2.1499C8.83111 2.1499 10.3175 2.76558 11.4134 3.8615C12.5093 4.95741 13.125 6.44379 13.125 7.99365C13.125 8.7201 12.7838 9.72851 12.1793 10.903C11.5867 12.0543 10.7888 13.2761 9.97898 14.4021C9.17106 15.5255 8.36158 16.5394 7.75329 17.2732C7.57717 17.4857 7.41817 17.6744 7.28125 17.8351C7.14433 17.6744 6.98533 17.4857 6.80921 17.2732C6.20092 16.5394 5.39144 15.5255 4.58352 14.4021C3.77372 13.2761 2.97578 12.0543 2.38321 10.903C1.77869 9.72851 1.4375 8.7201 1.4375 7.99365C1.4375 6.44379 2.05318 4.95741 3.14909 3.8615Z" fill="#D96832"/>
</svg>
