<svg width="15" height="15" viewBox="0 0 15 15" fill="none" xmlns="http://www.w3.org/2000/svg">
<path d="M13.9396 11.3406L13.8699 11.1306C13.7048 10.64 13.1638 10.1283 12.6667 9.99346L10.8271 9.49091C10.3282 9.35518 9.61654 9.53768 9.25154 9.90266L8.58574 10.5685C6.16608 9.91463 4.26869 8.01718 3.61575 5.598L4.28158 4.93217C4.64658 4.56716 4.82905 3.85646 4.69333 3.35758L4.19169 1.51704C4.05597 1.01907 3.54332 0.478018 3.05363 0.314767L2.84363 0.24416C2.35299 0.0809092 1.65327 0.246009 1.2883 0.610984L0.292354 1.60783C0.11443 1.78482 0.000714632 2.29104 0.000714632 2.29289C-0.034119 5.45491 1.20575 8.50136 3.44243 10.7381C5.67363 12.9693 8.70867 14.2073 11.8615 14.1807C11.878 14.1807 12.3989 14.0688 12.5768 13.8918L13.5728 12.8959C13.9377 12.5309 14.1028 11.8312 13.9396 11.3406Z" fill="#D96832"/>
</svg>
