<svg width="42" height="26" viewBox="0 0 42 26" fill="none" xmlns="http://www.w3.org/2000/svg">
<path fill-rule="evenodd" clip-rule="evenodd" d="M41.0079 2.412C41.3386 1.46121 41.0079 0.71712 39.6437 0.71712H35.0551C33.8976 0.71712 33.3602 1.3372 33.0295 2.03995C33.0295 2.03995 30.6732 7.70334 27.4075 11.4238C26.3327 12.4573 25.8366 12.8293 25.2579 12.8293C24.9685 12.8293 24.5551 12.4573 24.5551 11.5065V2.37066C24.5551 1.21318 24.1831 0.675781 23.2323 0.675781H15.998C15.2953 0.675781 14.8406 1.21318 14.8406 1.75058C14.8406 2.86673 16.4941 3.11476 16.7008 6.25649V12.9947C16.7008 14.4829 16.4114 14.7309 15.8327 14.7309C14.2618 14.7309 10.5 8.98484 8.22638 2.45334C7.77165 1.17184 7.35827 0.675781 6.20079 0.675781H1.57087C0.206693 0.675781 0 1.29586 0 1.95728C0 3.1561 1.57087 9.23287 7.23425 17.2112C11.0374 22.7093 16.4114 25.6443 21.248 25.6443C24.1831 25.6443 24.5551 24.9829 24.5551 23.8667V19.7329C24.5551 18.3687 24.8032 18.162 25.7539 18.162C26.4154 18.162 27.6142 18.5341 30.3425 21.1384C33.4429 24.2388 33.9803 25.6856 35.7165 25.6856H40.3051C41.628 25.6856 42.248 25.0242 41.9173 23.7427C41.5039 22.4199 39.9744 20.5596 38.0315 18.3274C36.9567 17.0872 35.3445 15.723 34.8898 15.0616C34.187 14.1522 34.3937 13.8215 34.8898 12.9947C34.8484 12.9947 40.4291 5.09901 41.0079 2.412Z" fill="white"/>
</svg>
