<svg width="30" height="31" viewBox="0 0 30 31" fill="none" xmlns="http://www.w3.org/2000/svg">
<path d="M30 14.7948C30 22.8658 23.407 29.4085 15.2727 29.4085C12.6903 29.4085 10.2643 28.7485 8.15367 27.5902L0 30.1812L2.65833 22.3405C1.31733 20.1385 0.545 17.5558 0.545 14.7948C0.545 6.72382 7.13867 0.181152 15.2727 0.181152C23.4077 0.181152 30 6.72382 30 14.7948ZM15.2727 2.50849C8.44467 2.50849 2.89067 8.02015 2.89067 14.7948C2.89067 17.4832 3.767 19.9728 5.24933 21.9982L3.70233 26.5612L8.46067 25.0488C10.4157 26.3325 12.7577 27.0812 15.273 27.0812C22.1 27.0812 27.655 21.5702 27.655 14.7955C27.655 8.02082 22.1003 2.50849 15.2727 2.50849ZM22.7097 18.1605C22.6187 18.0115 22.3783 17.9215 22.0177 17.7425C21.6563 17.5635 19.881 16.6965 19.551 16.5775C19.22 16.4582 18.9787 16.3982 18.7383 16.7565C18.498 17.1152 17.806 17.9215 17.595 18.1605C17.3843 18.4002 17.174 18.4302 16.8127 18.2508C16.452 18.0718 15.289 17.6932 13.91 16.4732C12.837 15.5238 12.1123 14.3518 11.9017 13.9928C11.6913 13.6345 11.8797 13.4408 12.06 13.2625C12.2227 13.1018 12.4213 12.8442 12.6017 12.6352C12.7827 12.4258 12.8427 12.2768 12.9623 12.0375C13.0833 11.7985 13.023 11.5895 12.9323 11.4098C12.8423 11.2308 12.1197 9.46815 11.819 8.75082C11.5183 8.03415 11.218 8.15349 11.007 8.15349C10.7967 8.15349 10.5557 8.12349 10.315 8.12349C10.0743 8.12349 9.683 8.21315 9.352 8.57149C9.02133 8.93015 8.089 9.79682 8.089 11.5592C8.089 13.3218 9.382 15.0248 9.563 15.2635C9.74333 15.5022 12.0597 19.2368 15.7297 20.6712C19.4 22.1048 19.4 21.6265 20.062 21.5665C20.7233 21.5068 22.1973 20.7002 22.4993 19.8642C22.7993 19.0268 22.7993 18.3098 22.7097 18.1605Z" fill="white"/>
</svg>
