<svg width="150" height="141" viewBox="0 0 150 141" fill="none" xmlns="http://www.w3.org/2000/svg">
<g filter="url(#filter0_d)">
<path d="M115 61.3075C115 56.323 110.833 53.6751 105 53.6751H88.1667C89.3333 49.4695 90 45.4196 90 41.9928C90 28.4414 86 25.6377 82.5 25.6377C80.1667 25.6377 78.5 25.7935 76.1667 27.1953C75.5 27.5069 75.1667 28.1299 75 28.753L72.5 41.3698C69.8333 48.0676 63 53.8309 57.5 57.7249V91.0583C59.3333 91.0583 61.6667 91.9928 63.8333 93.0832C66.5 94.3293 69.3333 95.5754 72.5 95.5754H96.3333C101.333 95.5754 105 91.8371 105 88.566C105 87.943 105 87.3199 104.833 86.8526C108 85.7623 110 83.2701 110 80.4664C110 79.0645 109.667 77.8184 109.167 76.8838C111 75.6377 113 73.6128 113 71.1206C113 69.8745 112.333 68.3168 111.333 67.2265C113.5 65.6689 115 63.4882 115 61.3075ZM109.833 61.3075C109.833 64.267 106.5 64.5785 106 65.9804C105.5 67.538 108 68.1611 108 70.9648C108 73.9243 104.167 73.9243 103.667 75.3262C103 77.0396 104.833 77.6626 104.833 80.4664C104.833 80.6221 104.833 80.7779 104.833 80.9336C104.333 83.2701 100.5 83.4259 99.8333 84.3605C99.1667 85.4508 100 86.0738 100 88.566C100 89.9679 98.3333 90.9025 96.3333 90.9025H72.5C70.6667 90.9025 68.3333 89.9679 66.1667 88.8776C64.1667 87.943 62.1667 87.0084 60 86.5411V61.7748C66.1667 57.4134 74.1667 50.7156 77.3333 42.6159C77.3333 42.4601 77.3333 42.3044 77.5 42.3044L79.8333 30.6221C80.6667 30.3106 81.3333 30.3106 82.6667 30.3106C83.1667 30.3106 85.1667 33.1143 85.1667 41.9928C85.1667 45.4196 84.5 49.3137 83.1667 53.6751H82.5C81.1667 53.6751 80 54.7654 80 56.0115C80 57.2576 81.1667 58.348 82.5 58.348H105C107.5 58.348 109.833 59.4383 109.833 61.3075Z" fill="#D96832"/>
<path d="M55 95.7312H40C37.1667 95.7312 35 93.7062 35 91.0583V58.348C35 55.7 37.1667 53.6751 40 53.6751H55C57.8333 53.6751 60 55.7 60 58.348V91.0583C60 93.7062 57.8333 95.7312 55 95.7312ZM40 58.348V91.0583H55V58.348H40Z" fill="#D96832"/>
</g>
<defs>
<filter id="filter0_d" x="-28.5" y="-1.3623" width="208" height="145" filterUnits="userSpaceOnUse" color-interpolation-filters="sRGB">
<feFlood flood-opacity="0" result="BackgroundImageFix"/>
<feColorMatrix in="SourceAlpha" type="matrix" values="0 0 0 0 0 0 0 0 0 0 0 0 0 0 0 0 0 0 127 0"/>
<feOffset dy="10"/>
<feGaussianBlur stdDeviation="17.5"/>
<feColorMatrix type="matrix" values="0 0 0 0 1 0 0 0 0 0.239216 0 0 0 0 0 0 0 0 0.55 0"/>
<feBlend mode="normal" in2="BackgroundImageFix" result="effect1_dropShadow"/>
<feBlend mode="normal" in="SourceGraphic" in2="effect1_dropShadow" result="shape"/>
</filter>
</defs>
</svg>
