<svg width="148" height="146" viewBox="0 0 148 146" fill="none" xmlns="http://www.w3.org/2000/svg">
<g filter="url(#filter0_d)">
<path fill-rule="evenodd" clip-rule="evenodd" d="M45.9839 96.9601C44.2728 95.7633 43.5063 94.8039 42.1018 93.4093C40.5291 91.8515 39.2878 91.2086 38.7092 89.0376L70.8938 56.5315L78.9746 64.3007L45.9839 96.9601ZM62.6449 29.5198C84.2167 29.5198 84.5332 40.4195 94.3448 46.9869C94.1767 49.0096 93.697 49.2865 93.697 51.5169C93.697 53.6978 98.5138 57.3376 100.813 57.3376C102.272 57.3376 103.889 54.5484 109.226 62.5155C108.622 64.7755 101.135 72.2628 98.8748 72.8661C95.9818 70.9276 93.3409 68.8159 93.059 65.0969C92.792 61.5758 93.4448 62.5105 91.3282 60.3543C86.0564 54.9836 86.086 58.0893 81.4077 61.2198L74.138 54.2616C75.587 49.4102 84.9536 48.9107 62.6449 29.5198ZM73.6435 48.2826C68.5398 55.9035 35.4651 83.7509 35.015 89.1315C34.7628 92.1927 37.7449 94.2203 39.5153 95.9957C46.0976 102.573 46.2559 101.886 52.4574 95.6693C57.1555 90.9613 84.553 63.0149 87.2284 61.2198C88.5192 63.1485 89.5132 62.8962 89.6418 65.0871C89.8099 67.9801 87.7081 67.0553 90.5567 70.1561C98.6622 78.9638 99.2952 78.6028 106.154 71.7337C108.029 69.8544 111.431 67.174 112.435 65.003C114.487 60.562 106.787 54.3012 105.739 53.6533C103.202 52.0856 103.543 53.4555 100.813 53.4555C99.2606 53.4555 98.9144 52.4071 97.5791 51.5169C99.043 45.2313 97.7868 45.5775 91.9216 39.7123C80.3296 28.1203 78.7768 25.6377 55.5285 25.6377C51.6958 25.6377 53.5503 28.2588 57.5907 30.6919C63.0307 33.9707 72.0659 41.4976 73.6435 48.2826Z" fill="#D96832"/>
</g>
<defs>
<filter id="filter0_d" x="0" y="0.637695" width="147.781" height="145" filterUnits="userSpaceOnUse" color-interpolation-filters="sRGB">
<feFlood flood-opacity="0" result="BackgroundImageFix"/>
<feColorMatrix in="SourceAlpha" type="matrix" values="0 0 0 0 0 0 0 0 0 0 0 0 0 0 0 0 0 0 127 0"/>
<feOffset dy="10"/>
<feGaussianBlur stdDeviation="17.5"/>
<feColorMatrix type="matrix" values="0 0 0 0 1 0 0 0 0 0.239216 0 0 0 0 0 0 0 0 0.55 0"/>
<feBlend mode="normal" in2="BackgroundImageFix" result="effect1_dropShadow"/>
<feBlend mode="normal" in="SourceGraphic" in2="effect1_dropShadow" result="shape"/>
</filter>
</defs>
</svg>
