<svg width="156" height="139" viewBox="0 0 156 139" fill="none" xmlns="http://www.w3.org/2000/svg">
<g filter="url(#filter0_d)">
<path d="M95.3423 93.5308C102.411 91.3644 108.796 86.8078 113.219 80.8994C117.944 74.5971 120.353 67.5169 120.353 59.6739C120.353 51.7423 117.904 44.688 113.219 38.4394C108.755 32.4773 102.386 27.9654 95.3422 25.8079C94.9994 25.7004 94.7549 25.6378 94.6287 25.6378C93.5796 25.6378 92.653 26.3182 92.405 27.2761C92.0649 28.583 92.7453 29.8633 93.9574 30.2123C106.592 33.8917 115.694 46.5323 115.694 59.6739C115.694 72.7171 106.593 85.4023 93.9574 89.0458C92.7444 89.395 92.047 90.7558 92.405 91.9822C92.7596 93.1907 94.0577 93.9247 95.3423 93.5308Z" fill="#D96832"/>
<path d="M108.225 59.674C108.225 54.5086 106.714 49.8534 103.735 45.7802C100.756 41.707 96.7692 38.8969 91.8178 37.347C91.6495 37.2575 91.3979 37.2216 91.1044 37.2216C90.0974 37.2216 89.1878 37.8395 88.8807 38.8599C88.5154 40.0686 89.2155 41.4204 90.4331 41.7962C94.3774 43.0139 97.5769 45.225 99.9591 48.5105C102.361 51.8139 103.568 55.5111 103.568 59.6738C103.568 63.7829 102.341 67.4711 99.9591 70.7476C97.5562 74.0599 94.3863 76.3605 90.4331 77.5422C89.2244 77.9093 88.5369 79.1807 88.8807 80.3981C89.2495 81.7051 90.5807 82.3139 91.8179 81.9111C96.7505 80.2996 100.756 77.5424 103.735 73.4781C106.714 69.4049 108.225 64.7855 108.225 59.674Z" fill="#D96832"/>
<path d="M94.2927 52.7905C95.7716 54.8405 96.5165 57.1145 96.5165 59.6747C96.5165 62.1456 95.7608 64.4103 94.2927 66.4694C92.8237 68.5285 90.9545 70.0054 88.5437 70.7486C87.2589 71.1425 85.9842 70.4085 85.5223 69.2C85.1866 67.9826 85.7855 66.7203 87.0745 66.2994C89.9411 65.3774 91.9006 62.6917 91.9006 59.6748C91.9006 56.6042 89.941 53.8828 87.0745 52.9607C85.7855 52.5399 85.1508 51.2687 85.5223 50.0602C85.823 49.0844 86.781 48.4219 87.7459 48.4219C87.9554 48.4219 88.2034 48.4756 88.5437 48.5921C90.932 49.3978 92.8343 50.7673 94.2927 52.7905Z" fill="#D96832"/>
<path fill-rule="evenodd" clip-rule="evenodd" d="M79.1028 89.3411C79.87 89.9678 80.6901 89.9948 81.579 89.5919C82.4519 89.1981 82.8798 88.4998 82.8797 87.5338V31.8057C82.8797 30.8388 82.4544 30.1405 81.579 29.6662C81.3634 29.5497 80.9917 29.496 80.5298 29.496C79.9838 29.496 79.5201 29.666 79.103 29.9974L59.8424 45.6547H37.308C36.0072 45.6547 35.0001 46.6575 35.0001 47.9644V71.2489C35.0001 72.5569 36.0072 73.6043 37.308 73.6043H59.8423L79.1028 89.3411ZM62.1502 49.7638L78.222 36.6319L78.2221 82.627L62.1503 69.4495C61.734 69.1094 61.2263 68.9392 60.6812 68.9392H39.6578V50.3099H60.681C61.2272 50.3099 61.6882 50.1398 62.1502 49.7638Z" fill="#D96832"/>
</g>
<defs>
<filter id="filter0_d" x="-25.5" y="-3.3623" width="208" height="145" filterUnits="userSpaceOnUse" color-interpolation-filters="sRGB">
<feFlood flood-opacity="0" result="BackgroundImageFix"/>
<feColorMatrix in="SourceAlpha" type="matrix" values="0 0 0 0 0 0 0 0 0 0 0 0 0 0 0 0 0 0 127 0"/>
<feOffset dy="10"/>
<feGaussianBlur stdDeviation="17.5"/>
<feColorMatrix type="matrix" values="0 0 0 0 1 0 0 0 0 0.239216 0 0 0 0 0 0 0 0 0.55 0"/>
<feBlend mode="normal" in2="BackgroundImageFix" result="effect1_dropShadow"/>
<feBlend mode="normal" in="SourceGraphic" in2="effect1_dropShadow" result="shape"/>
</filter>
</defs>
</svg>
