<svg width="145" height="146" viewBox="0 0 145 146" fill="none" xmlns="http://www.w3.org/2000/svg">
<g filter="url(#filter0_d)">
<path d="M46.1613 36.7991L46.1611 36.7994C44.9272 38.0301 44.9154 40.0188 46.1852 41.2886L46.1853 41.2887L50.9564 46.0632L46.1613 36.7991ZM46.1613 36.7991C47.4044 35.556 49.4001 35.5723 50.6508 36.823L55.4223 41.5944C56.6885 42.8607 56.677 44.853 55.4461 46.0839C54.2065 47.3235 52.204 47.3074 50.9567 46.0635L46.1613 36.7991Z" fill="#D96832" stroke="#D96832" stroke-width="0.5"/>
<path d="M99.8137 59.9795H106.562C108.35 59.9795 109.751 61.3953 109.751 63.1377C109.751 64.8954 108.332 66.2959 106.562 66.2959H99.8137C98.0147 66.2959 96.618 64.8832 96.618 63.1377C96.618 61.3839 98.0435 59.9795 99.8137 59.9795Z" fill="#D96832" stroke="#D96832" stroke-width="0.5"/>
<path d="M45.1905 59.9795C46.9824 59.9795 48.3827 61.3954 48.3827 63.1377C48.3827 64.8949 46.9572 66.2959 45.1905 66.2959H38.4389C36.6471 66.2959 35.25 64.8835 35.25 63.1377C35.25 61.3834 36.6726 59.9795 38.4389 59.9795H45.1905Z" fill="#D96832" stroke="#D96832" stroke-width="0.5"/>
<path d="M52.3008 63.1277C52.3008 51.9745 61.3467 42.9286 72.4999 42.9286C83.6498 42.9286 92.699 51.9745 92.699 63.1277C92.699 74.2809 83.6498 83.3268 72.4999 83.3268C61.3467 83.3268 52.3008 74.2809 52.3008 63.1277ZM58.6172 63.1277C58.6172 70.7945 64.8332 77.0104 72.4999 77.0104C80.1667 77.0104 86.3826 70.7945 86.3826 63.1277C86.3826 55.461 80.1667 49.245 72.4999 49.245C64.8332 49.245 58.6172 55.461 58.6172 63.1277Z" fill="#D96832" stroke="#D96832" stroke-width="0.5"/>
<path d="M55.446 80.1922L55.4462 80.1924C56.6893 81.4355 56.6731 83.4312 55.4224 84.6819L50.6509 89.4534C49.3849 90.7194 47.396 90.7083 46.1615 89.4772C44.9184 88.2341 44.9346 86.2385 46.1853 84.9877L50.9568 80.2163C52.2235 78.9496 54.2122 78.9552 55.446 80.1922Z" fill="#D96832" stroke="#D96832" stroke-width="0.5"/>
<path d="M98.8156 41.2883L98.8155 41.2884L94.0443 46.063C94.0443 46.063 94.0442 46.0631 94.0441 46.0632C92.7782 47.3257 90.7926 47.3149 89.5545 46.0835C88.3148 44.8436 88.328 42.8447 89.5785 41.5942L94.35 36.8227C95.6158 35.5568 97.6013 35.5675 98.8394 36.7988C100.076 38.0426 100.066 40.0383 98.8156 41.2883Z" fill="#D96832" stroke="#D96832" stroke-width="0.5"/>
<path d="M69.3418 90.4507C69.3418 88.655 70.7546 87.255 72.5 87.255C74.257 87.255 75.6582 88.6803 75.6582 90.4507V97.1989C75.6582 98.9939 74.246 100.388 72.5 100.388C70.7455 100.388 69.3418 98.9684 69.3418 97.1989V90.4507Z" fill="#D96832" stroke="#D96832" stroke-width="0.5"/>
<path d="M89.5782 84.6818L89.578 84.6816C88.3092 83.416 88.3227 81.4306 89.5544 80.1922C90.7979 78.9523 92.7935 78.9659 94.0438 80.2162L98.8153 84.9877L98.8155 84.9879C100.085 86.254 100.073 88.2458 98.8396 89.4767C97.5958 90.7141 95.5998 90.7034 94.3496 89.4533L89.5782 84.6818Z" fill="#D96832" stroke="#D96832" stroke-width="0.5"/>
<path d="M75.6582 35.8281C75.6582 37.6235 74.2457 39.0204 72.5 39.0204C70.746 39.0204 69.3418 37.5948 69.3418 35.8281V29.08C69.3418 27.2879 70.7545 25.8877 72.5 25.8877C74.2572 25.8877 75.6582 27.3132 75.6582 29.08V35.8281Z" fill="#D96832" stroke="#D96832" stroke-width="0.5"/>
</g>
<defs>
<filter id="filter0_d" x="-31.5" y="0.637695" width="208" height="145" filterUnits="userSpaceOnUse" color-interpolation-filters="sRGB">
<feFlood flood-opacity="0" result="BackgroundImageFix"/>
<feColorMatrix in="SourceAlpha" type="matrix" values="0 0 0 0 0 0 0 0 0 0 0 0 0 0 0 0 0 0 127 0"/>
<feOffset dy="10"/>
<feGaussianBlur stdDeviation="17.5"/>
<feColorMatrix type="matrix" values="0 0 0 0 1 0 0 0 0 0.239216 0 0 0 0 0 0 0 0 0.55 0"/>
<feBlend mode="normal" in2="BackgroundImageFix" result="effect1_dropShadow"/>
<feBlend mode="normal" in="SourceGraphic" in2="effect1_dropShadow" result="shape"/>
</filter>
</defs>
</svg>
